  <svg
                        width="16"
                        height="16"
                        viewBox="0 0 16 16"
                        fill="none"
                        xmlns="http://www.w3.org/2000/svg"
                      >
                        <path
                          d="M8.66675 5.33329C8.66675 4.9651 8.36827 4.66663 8.00008 4.66663C7.63189 4.66663 7.33341 4.9651 7.33341 5.33329V7.33329H5.33341C4.96522 7.33329 4.66675 7.63177 4.66675 7.99996C4.66675 8.36815 4.96523 8.66663 5.33341 8.66663H7.33341V10.6666C7.33341 11.0348 7.63189 11.3333 8.00008 11.3333C8.36827 11.3333 8.66675 11.0348 8.66675 10.6666V8.66663H10.6667C11.0349 8.66663 11.3334 8.36815 11.3334 7.99996C11.3334 7.63177 11.0349 7.33329 10.6667 7.33329H8.66675V5.33329Z"
                          fill="#767BFA"
                        />
                        <path
                          fill-rule="evenodd"
                          clip-rule="evenodd"
                          d="M0 8C0 14.588 1.412 16 8 16C14.588 16 16 14.588 16 8C16 1.412 14.588 0 8 0C1.412 0 0 1.412 0 8ZM1.33333 8C1.33333 9.61657 1.42169 10.8246 1.62514 11.74C1.82522 12.6403 2.11845 13.1738 2.47231 13.5277C2.82616 13.8815 3.35966 14.1748 4.25995 14.3749C5.17538 14.5783 6.38343 14.6667 8 14.6667C9.61657 14.6667 10.8246 14.5783 11.74 14.3749C12.6403 14.1748 13.1738 13.8815 13.5277 13.5277C13.8815 13.1738 14.1748 12.6403 14.3749 11.74C14.5783 10.8246 14.6667 9.61657 14.6667 8C14.6667 6.38343 14.5783 5.17538 14.3749 4.25995C14.1748 3.35966 13.8815 2.82616 13.5277 2.47231C13.1738 2.11846 12.6403 1.82522 11.74 1.62514C10.8246 1.42169 9.61657 1.33333 8 1.33333C6.38343 1.33333 5.17538 1.42169 4.25995 1.62514C3.35966 1.82522 2.82616 2.11846 2.47231 2.47231C2.11845 2.82616 1.82522 3.35966 1.62514 4.25995C1.42169 5.17538 1.33333 6.38343 1.33333 8Z"
                          fill="#ABAFD1"
                        />
                      </svg>